<svg xmlns="http://www.w3.org/2000/svg" version="1.1" xmlns:xlink="http://www.w3.org/1999/xlink" xmlns:svgjs="http://svgjs.com/svgjs" width="512" height="512" x="0" y="0" viewBox="0 0 128 128" style="enable-background:new 0 0 512 512" xml:space="preserve" class=""><g transform="matrix(1.3,0,0,1.3,-19.20044689178465,-13.068858528137113)"><linearGradient xmlns="http://www.w3.org/2000/svg" id="a" gradientUnits="userSpaceOnUse" x1="103.222" x2="24.778" y1="91.304" y2="12.861"><stop stop-opacity="1" stop-color="#3181db" offset="0.003861003861003861"></stop><stop stop-opacity="1" stop-color="#00023d" offset="1"></stop></linearGradient><path xmlns="http://www.w3.org/2000/svg" d="m54.113 65.118 1.769.8a19.8 19.8 0 0 0 16.236 0l1.77-.8a8.261 8.261 0 0 0 4.862-7.518v-5.961l6.69-2.873a1.749 1.749 0 0 0 0-3.216l-20.75-8.9a1.745 1.745 0 0 0 -1.378 0l-20.75 8.9a1.749 1.749 0 0 0 0 3.216l6.69 2.873v5.961a8.261 8.261 0 0 0 4.861 7.518zm21.137-7.518a4.758 4.758 0 0 1 -2.8 4.33l-1.768.8a16.3 16.3 0 0 1 -13.366 0l-1.767-.8a4.757 4.757 0 0 1 -2.8-4.33v-4.456l10.56 4.532a1.747 1.747 0 0 0 1.38 0l10.56-4.532zm-27.563-10.44 16.313-7 16.313 7-16.313 7.004zm56.228 3.028v1.145a1.75 1.75 0 0 1 -3.5 0v-1.145a1.75 1.75 0 0 1 3.5 0zm-81.315 36.727h39.651v6.218a5.19 5.19 0 1 0 3.5 0v-6.218h39.649a5.359 5.359 0 0 0 5.353-5.353v-.652a5.358 5.358 0 0 0 -5.353-5.352h-1.482v-15.558a1.75 1.75 0 0 0 -3.5 0v15.558h-72.833v-46.951h72.83v13.56a1.75 1.75 0 0 0 3.5 0v-13.56h1.485a5.359 5.359 0 0 0 5.353-5.353v-.654a5.359 5.359 0 0 0 -5.353-5.35h-82.8a5.359 5.359 0 0 0 -5.35 5.35v.651a5.359 5.359 0 0 0 5.35 5.356h1.482v46.951h-1.482a5.358 5.358 0 0 0 -5.35 5.352v.652a5.359 5.359 0 0 0 5.35 5.353zm41.4 12.775a1.691 1.691 0 1 1 1.69-1.69 1.692 1.692 0 0 1 -1.69 1.69zm-43.25-76.436v-.654a1.855 1.855 0 0 1 1.85-1.85h82.8a1.855 1.855 0 0 1 1.85 1.85v.651a1.855 1.855 0 0 1 -1.853 1.853h-82.797a1.855 1.855 0 0 1 -1.85-1.85zm0 57.656a1.855 1.855 0 0 1 1.85-1.852h82.8a1.855 1.855 0 0 1 1.853 1.852v.652a1.855 1.855 0 0 1 -1.853 1.853h-82.8a1.855 1.855 0 0 1 -1.853-1.853z" fill="url(#a)" data-original="url(#a)" class=""></path></g></svg>