<svg xmlns="http://www.w3.org/2000/svg" version="1.1" xmlns:xlink="http://www.w3.org/1999/xlink" xmlns:svgjs="http://svgjs.com/svgjs" width="512" height="512" x="0" y="0" viewBox="0 0 64 64" style="enable-background:new 0 0 512 512" xml:space="preserve" class=""><g><linearGradient xmlns="http://www.w3.org/2000/svg" id="SVGID_1_" gradientUnits="userSpaceOnUse" x1="32" x2="32" y1="63" y2="1"><stop stop-opacity="1" stop-color="#278aeb" offset="0"></stop><stop stop-opacity="1" stop-color="#00002f" offset="0.9536679536679536"></stop></linearGradient><path xmlns="http://www.w3.org/2000/svg" d="m43 50h-2c0-.552-.448-1-1-1s-1 .448-1 1 .448 1 1 1v2c-1.654 0-3-1.346-3-3s1.346-3 3-3 3 1.346 3 3zm20-20c0 1.654-1.346 3-3 3s-3-1.346-3-3c0-.956.632-3.708 2-4.665v-7.921l-1 1-1.663-1.663-3 7.001-.474-.474c-.614 4.305-3.274 8.045-7.249 10.033l-.614.308v2.452l.071.006c7.25.537 12.929 6.653 12.929 13.924 0 3.859-3.14 6.999-6.999 6.999h-.276l-.276 1.936c-.332 2.317-2.347 4.064-4.688 4.064h-11.522c-2.341 0-4.356-1.747-4.688-4.064l-.276-1.936h-.276c-2.08 0-3.945-.917-5.228-2.362l-5.372 7.162c-.562.752-1.46 1.2-2.399 1.2s-1.837-.448-2.399-1.2l-6.601-8.8h5v-4h2v6h-3l4.2 5.601c.375.5 1.225.5 1.6 0l4.2-5.601h-3v-6h2v4h2.685c-.435-.91-.685-1.925-.685-2.999 0-1.955.422-3.821 1.163-5.523-.431-.042-.858-.169-1.248-.401-.294-.174-.637-.198-.936-.071l-.058.023c-.28.131-.483.373-.56.671-.346 1.363-1.55 2.3-2.934 2.3h-2.854c-1.384 0-2.588-.937-2.93-2.277-.084-.328-.295-.575-.586-.703l-.016-.006c-.32-.136-.663-.113-.937.051-1.212.718-2.727.529-3.703-.449l-2.018-2.018c-.979-.979-1.168-2.492-.461-3.683.175-.294.197-.637.071-.936l-.023-.058c-.131-.28-.373-.483-.671-.56-1.362-.346-2.299-1.55-2.299-2.934v-2.854c0-1.385.937-2.59 2.278-2.931.322-.081.575-.298.702-.585l.006-.016c.135-.32.112-.663-.051-.937-.719-1.211-.529-2.725.449-3.703l2.018-2.018c.979-.979 2.494-1.168 3.683-.461.294.174.638.196.937.071l.056-.023c.277-.13.485-.378.561-.671.346-1.362 1.55-2.299 2.934-2.299h2.854c1.384 0 2.588.937 2.93 2.277.082.323.299.576.586.703l.016.006c.319.134.662.111.938-.051 1.209-.719 2.723-.529 3.702.449l2.018 2.018c.979.979 1.168 2.492.461 3.683-.175.294-.197.637-.071.936l.023.057c.13.277.378.485.671.561 1.362.344 2.299 1.549 2.299 2.934v2.854c0 1.384-.937 2.588-2.277 2.93-.328.084-.575.295-.703.586l-.006.016c-.135.32-.112.663.051.937.092.156.148.321.211.485 1.935-1.288 4.2-2.121 6.653-2.302l.071-.008v-2.172c-2.279-.465-4-2.484-4-4.899v-.382l-.246-.123c-1.082-.542-1.754-1.629-1.754-2.838 0-.629.185-1.237.534-1.76l.962-1.444c.33-.494.504-1.069.504-1.664v-2.973c-1.161-.414-2-1.514-2-2.816 0-3.859 3.141-7 7-7h3.795l5.453-2.337-1.662-1.663 2-2c1.289-1.289 3.539-1.289 4.828 0l3.586 3.586 1.672-1.672c.581-.581 1.385-.914 2.207-.914 1.721 0 3.121 1.4 3.121 3.121v19.214c1.368.957 2 3.709 2 4.665zm-7.586-23 3.586 3.586v-4.465c0-.618-.503-1.121-1.121-1.121-.295 0-.584.119-.793.328zm-19.414 25h5v2h-4v2.5l3 2.25 3-2.25v-8.221l1.696-.565c.781-.261 1.304-.987 1.304-1.809 0-1.051-.854-1.905-1.905-1.905h-1l-.095-1v-2c0-1.654-1.346-3-3-3h-1-3-3v2.789c0 .991-.29 1.95-.84 2.773l-.963 1.445c-.129.194-.197.419-.197.65 0 .447.248.849.647 1.049l1.353.676v1.618c0 1.654 1.346 3 3 3zm14 15.734c0-1.507-1.227-2.734-2.734-2.734h-14.532c-1.507 0-2.734 1.227-2.734 2.734 0 .131.01.261.027.39l1.269 8.876h17.408l1.269-8.879c.017-.126.027-.256.027-.387zm-11.586-4.734h3.172l-1.586-1.586zm3.108-2.892 1.936 1.936 1.002-4.008-.161-.012zm-3.044 0-2.777-2.083-.161.012 1.002 4.008zm-13.519 1.334c.436-.559.921-1.079 1.436-1.566.141-.308.132-.654-.037-.939-.489-.82-.564-1.814-.216-2.685l.025-.064c.365-.872 1.128-1.531 2.04-1.763.476-.122.793-.53.793-.998v-2.854c0-.469-.316-.877-.771-.991-.935-.238-1.696-.896-2.062-1.769l-.026-.065c-.349-.87-.273-1.863.204-2.666.251-.422.187-.935-.145-1.266l-2.018-2.018c-.331-.331-.843-.395-1.247-.156-.838.498-1.853.566-2.731.196-.891-.372-1.549-1.134-1.78-2.046-.121-.475-.529-.792-.997-.792h-2.854c-.468 0-.876.317-.992.771-.237.934-.896 1.695-1.768 2.061l-.112.04c-.789.337-1.802.268-2.618-.218-.423-.25-.935-.188-1.267.145l-2.018 2.018c-.331.331-.396.844-.156 1.247.489.82.564 1.814.216 2.685l-.026.065c-.365.872-1.127 1.53-2.039 1.762-.477.12-.793.528-.793.997v2.854c0 .468.317.876.771.992.934.237 1.696.896 2.062 1.769l.025.064c.349.87.273 1.863-.204 2.666-.251.422-.187.935.145 1.266l2.018 2.018c.332.332.845.396 1.247.156.821-.49 1.816-.564 2.685-.216l.064.025c.872.365 1.531 1.128 1.763 2.04.121.476.529.793.997.793h2.854c.468 0 .876-.317.992-.771.237-.934.896-1.696 1.769-2.062l.064-.025c.868-.348 1.863-.274 2.666.204.421.252.934.188 1.266-.145l.768-.768zm4.03 13.557-.571-3.999h-2.418v-2h2.132l-.085-.596c-.031-.223-.047-.447-.047-.67 0-2.61 2.124-4.734 4.734-4.734h1.985l-1.175-4.701c-5.458 1.134-9.544 5.997-9.544 11.702 0 2.753 2.237 4.993 4.989 4.998zm19.396 4.001h-16.77c.326 1.16 1.393 2 2.624 2h11.521c1.232 0 2.299-.84 2.625-2zm-1.93-20.701-1.175 4.701h1.985c2.611 0 4.735 2.124 4.735 4.734 0 .223-.016.446-.047.667l-.085.599h2.132v2h-2.418l-.571 3.999c2.752-.005 4.989-2.244 4.989-4.998 0-5.705-4.086-10.568-9.545-11.702zm4.542-16.887-11.412-11.412h-3.585c-2.757 0-5 2.243-5 5 0 .552.448 1 1 1h4 3 1c2.757 0 5 2.243 5 5v1.12c1.747.43 3 1.964 3 3.785 0 1.684-1.073 3.173-2.671 3.705l-.329.111v1.636c3.688-1.975 5.978-5.744 5.997-9.945zm3.817-6.183-8.043-8.043-5.02 2.151 10.911 10.911zm4.186-1.229c0-.378-.147-.732-.414-1l-9.586-9.586c-.535-.533-1.465-.533-2 0l-.586.586.814.814 9.957 9.957.815.815.586-.586c.267-.268.414-.622.414-1zm2 16c0-.826-.571-2.436-1-2.915-.429.479-1 2.089-1 2.915 0 .552.448 1 1 1s1-.448 1-1zm-40 2c0 2.757-2.243 5-5 5s-5-2.243-5-5 2.243-5 5-5 5 2.243 5 5zm-2 0c0-1.654-1.346-3-3-3s-3 1.346-3 3 1.346 3 3 3 3-1.346 3-3zm6 0c0 4.963-4.037 9-9 9s-9-4.037-9-9 4.037-9 9-9 9 4.037 9 9zm-2 0c0-3.859-3.141-7-7-7s-7 3.141-7 7 3.141 7 7 7 7-3.141 7-7zm-5-17h2v-4h5l-6.601-8.8c-.562-.752-1.46-1.2-2.399-1.2s-1.837.448-2.399 1.2l-6.601 8.8h5v4h2v-6h-3l4.2-5.601c.375-.5 1.225-.5 1.6 0l4.2 5.601h-3z" fill="url(#SVGID_1_)" data-original="url(#SVGID_1_)"></path></g></svg>