<svg xmlns="http://www.w3.org/2000/svg" version="1.1" xmlns:xlink="http://www.w3.org/1999/xlink" xmlns:svgjs="http://svgjs.com/svgjs" width="512" height="512" x="0" y="0" viewBox="0 0 24 24" style="enable-background:new 0 0 512 512" xml:space="preserve" class=""><g><linearGradient xmlns="http://www.w3.org/2000/svg" id="lg1"><stop stop-opacity="1" stop-color="#b2d235" offset="0"></stop><stop stop-opacity="1" stop-color="#1a9267" offset="0"></stop></linearGradient><linearGradient xmlns="http://www.w3.org/2000/svg" id="SVGID_1_" gradientUnits="userSpaceOnUse" x1="12" x2="12" xmlns:xlink="http://www.w3.org/1999/xlink" xlink:href="#lg1" y1=".179" y2="24.492"></linearGradient><linearGradient xmlns="http://www.w3.org/2000/svg" id="SVGID_2_" gradientUnits="userSpaceOnUse" x1="11.993" x2="11.993" xmlns:xlink="http://www.w3.org/1999/xlink" xlink:href="#lg1" y1=".179" y2="24.492"></linearGradient><g xmlns="http://www.w3.org/2000/svg" id="Check"><path d="m12 2c-5.5 0-10 4.5-10 10s4.5 10 10 10 10-4.5 10-10-4.5-10-10-10zm0 18c-4.4000001 0-8-3.6000004-8-8s3.5999999-8 8-8 8 3.5999999 8 8-3.6000004 8-8 8z" fill="url(#SVGID_1_)" data-original="url(#SVGID_1_)"></path><path d="m15.1999998 7.9000001-4.3000002 5.9999995-2.1999998-2.1999998c-.9000001-1-2.4000001.3999996-1.4000001 1.3999996l2.9999995 2.999999c.3999996.3999996 1.1999998.3999996 1.5-.1000004l5-7c.8000012-.999998-.7999992-2.1999978-1.5999994-1.0999979z" fill="url(#SVGID_2_)" data-original="url(#SVGID_2_)"></path></g></g></svg>