<svg xmlns="http://www.w3.org/2000/svg" version="1.1" xmlns:xlink="http://www.w3.org/1999/xlink" xmlns:svgjs="http://svgjs.com/svgjs" width="512" height="512" x="0" y="0" viewBox="0 0 512 512" style="enable-background:new 0 0 512 512" xml:space="preserve" class=""><g><linearGradient xmlns="http://www.w3.org/2000/svg" id="SVGID_1_" gradientUnits="userSpaceOnUse" x1="431.992" x2="20.083" y1="50.046" y2="461.955"><stop stop-opacity="1" stop-color="#865627" offset="0.1969111969111969"></stop><stop stop-opacity="1" stop-color="#effe65" offset="1"></stop></linearGradient><path xmlns="http://www.w3.org/2000/svg" d="m491.833 151.657c-7.201-7.201-16.809-11.167-27.051-11.167-10.243 0-19.851 3.966-27.052 11.167l-24.226 24.226v-131.272c0-17.406-14.163-31.566-31.571-31.566-79.193-.006-307.864 0-307.864 0-22.646 0-41.071 18.424-41.071 41.071v36.772h-6.437c-9.683-.001-17.561 7.877-17.561 17.56v19.448c0 9.683 7.878 17.561 17.562 17.561h6.437v37.315h-6.437c-9.684 0-17.562 7.878-17.562 17.561v19.448c0 9.683 7.878 17.561 17.562 17.561h6.437v37.315h-6.437c-9.684 0-17.562 7.878-17.562 17.562v19.447c0 9.684 7.878 17.562 17.562 17.562h6.437v37.315h-6.437c-9.684 0-17.562 7.878-17.562 17.561v19.448c0 9.683 7.878 17.561 17.562 17.561h6.437v36.772c0 22.646 18.425 41.071 41.071 41.071 0 0 101.629.002 192.85.002 45.606 0 88.618 0 115.015-.002 17.408 0 31.571-14.161 31.571-31.566v-183.303l78.328-78.328c14.914-14.917 14.915-39.187-.001-54.102zm-413.15 269.456h6.438c9.683 0 17.561-7.878 17.561-17.561v-19.448c0-9.683-7.878-17.561-17.561-17.561h-6.438v-37.315h6.438c9.683 0 17.561-7.878 17.561-17.562v-19.447c0-9.684-7.878-17.562-17.561-17.562h-6.438v-37.315h6.438c9.683 0 17.561-7.878 17.561-17.561v-19.448c0-9.683-7.878-17.561-17.561-17.561h-6.438v-37.315h6.438c9.683 0 17.561-7.878 17.561-17.561v-19.448c0-9.683-7.878-17.561-17.561-17.561h-6.438v-32.158l95.637-.001c64.499-.002 129-.003 193.501 0v162.84l-102.926 102.926c-.681.681-1.213 1.495-1.565 2.391l-27.348 69.627c-1.003 2.553-.422 5.456 1.485 7.427 1.342 1.387 3.167 2.133 5.031 2.132.785 0 1.577-.132 2.343-.404l71.55-25.425c.98-.348 1.87-.911 2.606-1.646l48.823-48.823v123.501c-63.455.002-126.911.002-190.368 0l-98.77-.001v-32.16zm193.975-79.686 29.141 29.141-47.17 16.762zm41.753 21.954-34.302-34.303 144.885-144.885 34.302 34.303zm-267.413-309.266c0-14.927 12.145-27.071 27.071-27.071 0 0 228.67-.006 307.864 0 9.688 0 17.571 7.88 17.571 17.566v145.272l-17.685 17.685v-155.838c0-3.866-3.134-7-7-7-66.832-.004-133.667-.003-200.501-.001l-100.25.001c-5.176 0-9.387 4.211-9.387 9.387v36.772h-17.683zm-23.998 73.781v-19.448c0-1.963 1.598-3.561 3.562-3.561h58.558c1.963 0 3.561 1.598 3.561 3.561v19.448c0 1.963-1.598 3.561-3.561 3.561h-58.558c-1.964 0-3.562-1.598-3.562-3.561zm23.998 17.561h17.685v37.315h-17.685zm-23.998 74.324v-19.448c0-1.963 1.598-3.561 3.562-3.561h58.558c1.963 0 3.561 1.598 3.561 3.561v19.448c0 1.963-1.598 3.561-3.561 3.561h-58.558c-1.964 0-3.562-1.597-3.562-3.561zm23.998 17.561h17.685v37.315h-17.685zm-23.998 74.324v-19.447c0-1.964 1.598-3.562 3.562-3.562h58.558c1.963 0 3.561 1.598 3.561 3.562v19.447c0 1.964-1.598 3.562-3.561 3.562h-58.558c-1.964 0-3.562-1.598-3.562-3.562zm23.998 17.562h17.685v37.315h-17.685zm-23.998 74.324v-19.448c0-1.963 1.598-3.561 3.562-3.561h58.558c1.963 0 3.561 1.598 3.561 3.561v19.448c0 1.963-1.598 3.561-3.561 3.561h-58.558c-1.964 0-3.562-1.598-3.562-3.561zm376.505 63.838c0 9.686-7.883 17.566-17.571 17.566-79.199.003-307.865 0-307.864 0-14.927 0-27.071-12.144-27.071-27.071v-36.772h17.685v36.772c0 5.176 4.211 9.387 9.387 9.387l103.383.001c34.726 0 69.441.001 104.167.001 31.063 0 62.138 0 93.201-.002 3.866 0 7-3.134 7-7v-144.5l17.685-17.685v169.303zm82.428-271.531-12.736 12.737-34.302-34.303 12.737-12.737c4.557-4.557 10.647-7.067 17.151-7.067 6.503 0 12.595 2.51 17.151 7.066 9.457 9.458 9.457 24.847-.001 34.304zm-329.765-6.422h33.562c12.131 0 22-9.869 22-22v-33.562c0-3.456-.803-6.727-2.229-9.639l10.5-16.399c2.084-3.256 1.135-7.585-2.121-9.669-3.255-2.084-7.584-1.135-9.67 2.121l-8.845 13.814c-2.912-1.425-6.181-2.227-9.635-2.227h-33.562c-12.131 0-22 9.869-22 22v33.562c0 12.129 9.869 21.999 22 21.999zm-8-55.562c0-4.411 3.589-8 8-8h33.562c.669 0 1.316.092 1.938.247l-14.83 23.163-10.734-12.167c-2.559-2.898-6.983-3.176-9.88-.618-2.899 2.558-3.176 6.981-.618 9.88l16.875 19.125c1.334 1.512 3.249 2.369 5.248 2.369.179 0 .358-.007.538-.021 2.189-.168 4.174-1.355 5.358-3.205l14.104-22.029v24.816c0 4.411-3.589 8-8 8h-33.562c-4.411 0-8-3.588-8-8v-33.56zm8 158.312h33.562c12.131 0 22-9.869 22-22v-33.562c0-3.456-.803-6.726-2.229-9.639l10.5-16.399c2.084-3.256 1.135-7.585-2.121-9.669-3.255-2.084-7.584-1.135-9.67 2.121l-8.845 13.814c-2.912-1.424-6.181-2.227-9.635-2.227h-33.562c-12.131 0-22 9.869-22 22v33.562c0 12.13 9.869 21.999 22 21.999zm-8-55.562c0-4.411 3.589-8 8-8h33.562c.669 0 1.316.092 1.938.247l-14.83 23.163-10.734-12.167c-2.558-2.898-6.98-3.175-9.881-.618-2.898 2.558-3.175 6.981-.617 9.88l16.875 19.125c1.334 1.512 3.249 2.369 5.248 2.369.179 0 .358-.007.538-.021 2.189-.168 4.174-1.355 5.358-3.205l14.104-22.029v24.816c0 4.411-3.589 8-8 8h-33.562c-4.411 0-8-3.589-8-8v-33.56zm63.561 136.313v-33.562c0-3.456-.803-6.727-2.229-9.639l10.5-16.399c2.084-3.256 1.135-7.585-2.121-9.669-3.255-2.085-7.584-1.135-9.67 2.121l-8.845 13.814c-2.912-1.425-6.181-2.227-9.635-2.227h-33.562c-12.131 0-22 9.869-22 22v33.562c0 12.13 9.869 22 22 22h33.562c12.131-.002 22-9.871 22-22.001zm-63.561 0v-33.562c0-4.411 3.589-8 8-8h33.562c.669 0 1.316.092 1.938.247l-14.83 23.163-10.734-12.167c-2.559-2.898-6.983-3.175-9.88-.618-2.899 2.558-3.176 6.981-.618 9.88l16.875 19.125c1.334 1.512 3.249 2.369 5.248 2.369.179 0 .358-.007.538-.021 2.189-.168 4.174-1.355 5.358-3.205l14.104-22.029v24.816c0 4.411-3.589 8-8 8h-33.562c-4.41.001-7.999-3.587-7.999-7.998zm90.162-236.907c0-3.866 3.134-7 7-7h73.5c3.866 0 7 3.134 7 7s-3.134 7-7 7h-73.5c-3.866 0-7-3.134-7-7zm0 29.25c0-3.866 3.134-7 7-7h36.75c3.866 0 7 3.134 7 7s-3.134 7-7 7h-36.75c-3.866 0-7-3.134-7-7zm0 73.5c0-3.866 3.134-7 7-7h73.5c3.866 0 7 3.134 7 7s-3.134 7-7 7h-73.5c-3.866 0-7-3.134-7-7zm0 29.25c0-3.866 3.134-7 7-7h36.75c3.866 0 7 3.134 7 7s-3.134 7-7 7h-36.75c-3.866 0-7-3.134-7-7z" fill="url(#SVGID_1_)" data-original="url(#SVGID_1_)" style=""></path></g></svg>