<svg xmlns="http://www.w3.org/2000/svg" version="1.1" xmlns:xlink="http://www.w3.org/1999/xlink" xmlns:svgjs="http://svgjs.com/svgjs" width="512" height="512" x="0" y="0" viewBox="0 0 64 64" style="enable-background:new 0 0 512 512" xml:space="preserve" class=""><g><linearGradient xmlns="http://www.w3.org/2000/svg" id="SVGID_1_" gradientUnits="userSpaceOnUse" x1="32" x2="32" y1="63" y2="1"><stop stop-opacity="1" stop-color="#49b2b1" offset="0"></stop><stop stop-opacity="1" stop-color="#004457" offset="1"></stop></linearGradient><path xmlns="http://www.w3.org/2000/svg" d="m33 42c0 4.963 4.037 9 9 9s9-4.037 9-9-4.037-9-9-9-9 4.037-9 9zm16 0c0 3.859-3.141 7-7 7s-7-3.141-7-7 3.141-7 7-7 7 3.141 7 7zm-2 1h-2v-2h2zm-10-2h2v2h-2zm4 0h2v2h-2zm16 17c0-.552.448-1 1-1s1 .448 1 1-.448 1-1 1-1-.448-1-1zm-1-47c1.654 0 3-1.346 3-3s-1.346-3-3-3-3 1.346-3 3 1.346 3 3 3zm0-4c.552 0 1 .448 1 1s-.448 1-1 1-1-.448-1-1 .448-1 1-1zm0 8c3.859 0 7-3.141 7-7s-3.141-7-7-7-7 3.141-7 7c0 .844.158 1.65.433 2.4l-3.509 1.89c-.731-.789-1.767-1.29-2.924-1.29-.809 0-1.559.245-2.189.659l-5.287-4.807c.294-.556.476-1.18.476-1.852 0-2.206-1.794-4-4-4s-4 1.794-4 4c0 .783.235 1.509.625 2.127l-4.479 4.757c-2.231-1.8-5.063-2.884-8.146-2.884-7.168 0-13 5.832-13 13 0 2.535.74 4.894 2 6.896v.104h-4v30h20.101c.465 2.279 2.484 4 4.899 4s4.435-1.721 4.899-4h20.101v-2.188l4.225 4.706c.843.942 2.052 1.482 3.318 1.482 2.458 0 4.457-1.999 4.457-4.457 0-1.266-.54-2.475-1.48-3.317l-8.014-7.194c.95-1.805 1.494-3.855 1.494-6.032 0-5.397-3.307-10.034-8-11.997v-5.003h-18.363c.229-.965.363-1.966.363-3 0-3.366-1.297-6.427-3.403-8.738l4.491-4.771c.571.314 1.216.509 1.912.509.808 0 1.559-.245 2.188-.659l5.287 4.807c-.293.557-.475 1.18-.475 1.852 0 2.206 1.794 4 4 4s4-1.794 4-4c0-.329-.051-.643-.126-.949l3.51-1.89c1.277 1.718 3.316 2.839 5.616 2.839zm-40-4c1.075 0 2.22 1.527 3.009 4h-6.019c.79-2.473 1.935-4 3.01-4zm3.519 6c.244 1.209.408 2.553.46 4h-7.958c.052-1.447.217-2.791.46-4zm-3.519 16c-1.075 0-2.22-1.527-3.009-4h6.019c-.79 2.473-1.935 4-3.01 4zm5.105-4h3.373c-1.246 1.507-2.891 2.665-4.764 3.341.554-.919 1.023-2.046 1.391-3.341zm-8.819 3.341c-1.874-.676-3.518-1.834-4.765-3.341h3.373c.369 1.295.838 2.422 1.392 3.341zm.195-5.341c-.244-1.209-.408-2.553-.46-4h7.958c-.052 1.447-.217 2.791-.46 4zm-2.459-6h-4.971c.13-1.43.537-2.779 1.164-4h4.216c-.225 1.237-.364 2.581-.409 4zm0 2c.046 1.419.184 2.763.409 4h-4.217c-.626-1.221-1.034-2.57-1.164-4zm-3.022 8.359c2.338 2.249 5.507 3.641 9 3.641s6.662-1.392 9-3.641v18.641c0 1.654-1.346 3-3 3h-15zm18.786-4.359h-4.216c.225-1.237.363-2.581.409-4h4.971c-.13 1.43-.538 2.779-1.164 4zm-3.808-6c-.046-1.419-.184-2.763-.409-4h4.216c.626 1.221 1.034 2.57 1.164 4zm-.873-6c-.368-1.295-.837-2.422-1.391-3.341 1.874.675 3.518 1.834 4.764 3.341zm-8.819-3.341c-.553.919-1.023 2.046-1.391 3.341h-3.374c1.247-1.507 2.891-2.665 4.765-3.341zm36.714 45.341h-20v1c0 1.654-1.346 3-3 3s-3-1.346-3-3v-1h-20v-26h2v24h17c1.641 0 3.088-.806 4-2.031.912 1.225 2.359 2.031 4 2.031h12c2.177 0 4.227-.544 6.032-1.495l.968 1.079zm11.185-.285c.518.464.815 1.131.815 1.828 0 1.354-1.103 2.457-2.457 2.457-.697 0-1.364-.297-1.829-.816l-6.971-7.766c1.017-.758 1.917-1.658 2.675-2.675zm-7.185-14.715c0 6.065-4.935 11-11 11s-11-4.935-11-11 4.935-11 11-11 11 4.935 11 11zm-8-15v2.363c-.965-.229-1.966-.363-3-.363-7.168 0-13 5.832-13 13 0 4.633 2.445 8.697 6.104 11h-5.104c-1.654 0-3-1.346-3-3v-20-1.104c.379-.603.719-1.232.997-1.896zm-13-20c-1.103 0-2-.897-2-2s.897-2 2-2 2 .897 2 2-.897 2-2 2zm11 10c-1.103 0-2-.897-2-2s.897-2 2-2 2 .897 2 2-.897 2-2 2zm13-14c2.757 0 5 2.243 5 5s-2.243 5-5 5-5-2.243-5-5 2.243-5 5-5zm-33 34h-14v6h14zm-2 4h-10v-2h10zm2 6h-14v-2h14zm0 4h-2v-2h2zm-14-2h10v2h-10z" fill="url(#SVGID_1_)" data-original="url(#SVGID_1_)" style=""></path></g></svg>