<?xml version="1.0" standalone="no"?>
<!DOCTYPE svg PUBLIC "-//W3C//DTD SVG 20010904//EN"
 "http://www.w3.org/TR/2001/REC-SVG-20010904/DTD/svg10.dtd">
<svg version="1.0" xmlns="http://www.w3.org/2000/svg"
 width="512.000000pt" height="512.000000pt" viewBox="0 0 512.000000 512.000000"
 preserveAspectRatio="xMidYMid meet">
<metadata>
Created by potrace 1.16, written by Peter Selinger 2001-2019
</metadata>
<g transform="translate(0.000000,512.000000) scale(0.100000,-0.100000)"
fill="#fff" stroke="none">
<path d="M244 4621 c-59 -27 -109 -75 -138 -133 l-26 -52 0 -1556 0 -1556 26
-52 c29 -58 79 -106 138 -133 39 -18 86 -19 887 -19 l847 0 -13 -63 c-7 -34
-18 -88 -25 -119 l-11 -58 -185 0 c-240 0 -224 14 -224 -200 0 -147 2 -162 20
-180 20 -20 33 -20 1020 -20 987 0 1000 0 1020 20 18 18 20 33 20 180 0 214
16 200 -224 200 l-185 0 -11 58 c-7 31 -18 85 -25 119 l-13 63 847 0 c801 0
848 1 887 19 59 27 109 75 138 133 l26 52 0 1555 c0 1491 -1 1558 -19 1597
-27 59 -75 109 -133 138 l-52 26 -2275 0 c-2191 0 -2278 -1 -2317 -19z m4569
-164 c15 -9 35 -29 44 -44 17 -26 18 -105 21 -1340 l2 -1313 -2320 0 -2320 0
0 1293 c0 824 4 1305 10 1328 12 41 46 76 86 89 16 5 1015 8 2239 7 2094 -2
2212 -3 2238 -20z m66 -2970 c-4 -122 -14 -150 -66 -184 -26 -17 -143 -18
-2253 -18 -2110 0 -2227 1 -2253 18 -52 34 -62 62 -66 184 l-3 113 2322 0
2322 0 -3 -113z m-1899 -424 c7 -32 18 -86 25 -120 l13 -63 -458 0 -458 0 13
63 c7 34 18 88 25 120 l11 57 409 0 409 0 11 -57z m460 -383 l0 -40 -880 0
-880 0 0 40 0 40 880 0 880 0 0 -40z"/>
<path d="M2420 1500 c-13 -13 -20 -33 -20 -60 0 -70 20 -80 160 -80 140 0 160
10 160 80 0 70 -20 80 -160 80 -107 0 -122 -2 -140 -20z"/>
</g>
</svg>
