<?xml version="1.0" standalone="no"?>
<!DOCTYPE svg PUBLIC "-//W3C//DTD SVG 20010904//EN"
 "http://www.w3.org/TR/2001/REC-SVG-20010904/DTD/svg10.dtd">
<svg version="1.0" xmlns="http://www.w3.org/2000/svg"
 width="512.000000pt" height="512.000000pt" viewBox="0 0 512.000000 512.000000"
 preserveAspectRatio="xMidYMid meet">
<metadata>
Created by potrace 1.16, written by Peter Selinger 2001-2019
</metadata>
<g transform="translate(0.000000,512.000000) scale(0.100000,-0.100000)"
fill="#fff" stroke="none">
<path d="M124 5091 c-17 -11 -36 -34 -43 -52 -8 -23 -11 -680 -11 -2461 0
-2662 -4 -2480 59 -2513 28 -14 188 -15 1668 -13 l1638 3 75 23 c203 63 328
183 375 363 13 46 15 326 15 1854 l0 1800 -505 505 -505 505 -1367 3 c-1331 2
-1369 2 -1399 -17z m2608 -642 l3 -451 28 -24 28 -24 445 0 444 0 0 -1713 c0
-1892 4 -1774 -64 -1853 -18 -22 -57 -52 -85 -68 -104 -56 -73 -55 -1723 -56
l-1518 0 0 2320 0 2320 1220 0 1219 0 3 -451z m508 -4 l285 -285 -288 0 -287
0 0 285 c0 157 1 285 3 285 1 0 130 -128 287 -285z"/>
<path d="M697 3716 c-57 -21 -105 -62 -132 -116 -25 -48 -25 -54 -25 -285 0
-256 4 -281 58 -339 15 -16 50 -39 77 -52 46 -22 63 -24 213 -24 l164 0 29 29
c39 39 41 106 5 148 -24 28 -24 28 -168 31 -159 3 -168 7 -168 69 l0 33 145 0
c163 0 194 8 215 59 18 44 5 95 -31 125 -30 25 -34 26 -180 26 l-149 0 0 34
c0 60 15 66 166 66 l136 0 29 29 c23 23 29 38 29 71 0 95 -32 110 -227 110
-97 -1 -161 -5 -186 -14z"/>
<path d="M1224 3720 c-12 -4 -31 -21 -44 -37 -17 -22 -21 -37 -17 -71 4 -36
20 -62 106 -166 55 -69 101 -128 101 -132 0 -4 -42 -59 -94 -123 -51 -64 -98
-126 -105 -138 -20 -39 -13 -80 20 -118 26 -30 37 -35 74 -35 51 0 58 6 160
125 42 50 82 96 89 103 10 10 30 -10 100 -98 48 -61 96 -115 106 -120 58 -31
143 10 155 74 9 48 -12 86 -118 216 l-94 114 103 128 c57 70 106 139 110 153
9 34 -2 69 -30 102 -21 24 -32 28 -74 28 -60 0 -69 -7 -174 -140 -40 -52 -75
-94 -78 -94 -3 0 -45 49 -94 110 -101 127 -135 146 -202 119z"/>
<path d="M2193 3714 c-23 -9 -59 -34 -80 -57 -38 -41 -41 -51 -117 -348 l-78
-306 17 -37 c28 -58 91 -81 150 -54 32 14 49 45 65 121 l13 57 53 0 c65 0 101
15 120 51 18 36 18 73 -1 109 -18 36 -43 50 -86 50 -26 0 -31 3 -26 20 3 11
15 63 28 115 22 91 41 118 53 78 3 -10 37 -139 77 -288 57 -217 76 -275 97
-297 65 -70 182 -24 182 71 0 40 -144 580 -165 622 -47 90 -188 133 -302 93z"/>
<path d="M2775 3721 c-11 -5 -29 -19 -40 -31 -19 -21 -20 -36 -20 -377 l0
-355 33 -29 c61 -55 150 -30 172 49 5 20 10 86 10 146 l0 109 39 -61 c44 -68
64 -82 114 -82 45 0 79 28 126 102 l38 60 6 -69 c4 -37 7 -103 7 -145 0 -97
20 -127 93 -135 43 -5 49 -3 83 31 l37 37 -8 347 c-8 386 -7 383 -75 403 -70
21 -92 3 -199 -165 -52 -80 -97 -146 -101 -146 -5 0 -48 64 -96 142 -107 169
-145 199 -219 169z"/>
<path d="M1022 2403 c-6 -2 -60 -65 -118 -139 l-106 -134 -34 30 c-72 63 -184
18 -184 -73 0 -37 31 -81 107 -150 78 -70 117 -86 162 -67 31 13 313 358 331
404 14 37 -3 100 -33 121 -20 14 -97 20 -125 8z"/>
<path d="M1391 2286 c-68 -38 -66 -152 4 -184 19 -9 266 -12 1000 -12 l974 0
26 23 c51 44 42 143 -16 172 -40 21 -1951 22 -1988 1z"/>
<path d="M1404 1950 c-64 -26 -84 -115 -38 -169 l26 -31 767 0 c848 0 798 -4
821 65 16 48 -2 100 -44 126 -30 18 -58 19 -771 18 -407 0 -750 -4 -761 -9z"/>
<path d="M1015 1516 c-11 -7 -65 -70 -119 -139 l-99 -125 -40 29 c-22 16 -53
29 -69 29 -36 0 -84 -24 -98 -49 -14 -26 -12 -91 3 -116 14 -23 120 -123 157
-148 31 -21 79 -22 108 -1 24 17 291 344 310 381 24 45 4 120 -37 143 -28 14
-93 12 -116 -4z"/>
<path d="M1375 1407 c-20 -16 -28 -35 -32 -68 -5 -41 -2 -50 25 -80 l30 -34
987 0 987 0 29 33 c41 45 41 102 0 143 l-29 29 -986 0 -985 0 -26 -23z"/>
<path d="M1404 1086 c-84 -37 -86 -147 -4 -188 32 -17 89 -18 760 -17 534 0
734 3 760 12 25 9 40 23 54 51 17 36 18 43 5 80 -27 80 13 76 -814 76 -593 -1
-736 -3 -761 -14z"/>
<path d="M4423 5050 c-56 -34 -63 -61 -63 -235 l0 -156 -27 -24 -28 -23 0
-232 0 -232 27 -23 28 -24 2 -1698 3 -1698 108 -328 c102 -309 111 -330 140
-348 41 -24 74 -24 114 1 30 18 38 37 142 358 l111 339 0 1692 c0 1137 3 1691
10 1691 6 0 19 15 30 33 18 29 20 50 20 253 0 205 -1 222 -19 238 -17 16 -20
35 -23 180 -3 179 -9 199 -71 236 -29 18 -52 20 -252 20 -201 0 -223 -2 -252
-20z m357 -285 l0 -95 -105 0 -105 0 0 95 0 95 105 0 105 0 0 -95z m60 -385
l0 -70 -160 0 -160 0 0 70 0 70 160 0 160 0 0 -70z m-60 -1880 l0 -1600 -105
0 -105 0 0 1600 0 1600 105 0 105 0 0 -1600z"/>
</g>
</svg>
