<?xml version="1.0" standalone="no"?>
<!DOCTYPE svg PUBLIC "-//W3C//DTD SVG 20010904//EN"
 "http://www.w3.org/TR/2001/REC-SVG-20010904/DTD/svg10.dtd">
<svg version="1.0" xmlns="http://www.w3.org/2000/svg"
 width="512.000000pt" height="512.000000pt" viewBox="0 0 512.000000 512.000000"
 preserveAspectRatio="xMidYMid meet">
<metadata>
Created by potrace 1.16, written by Peter Selinger 2001-2019
</metadata>
<g transform="translate(0.000000,512.000000) scale(0.100000,-0.100000)"
fill="#fff" stroke="none">
<path d="M1220 4401 c-145 -6 -159 -8 -215 -35 -77 -38 -190 -151 -271 -271
-305 -450 -598 -1284 -705 -2001 -30 -201 -37 -569 -15 -723 44 -299 164 -504
349 -597 68 -35 188 -64 261 -64 305 1 638 280 1023 858 l95 142 818 0 818 0
78 -118 c259 -394 521 -676 745 -801 176 -98 369 -105 548 -20 86 40 204 159
253 254 93 181 123 360 115 695 -8 353 -64 684 -186 1107 -229 790 -559 1413
-815 1538 -58 28 -67 29 -270 38 -421 17 -543 -6 -675 -128 -31 -29 -72 -80
-91 -114 l-35 -60 -485 0 -485 0 -35 60 c-62 109 -168 191 -293 226 -62 17
-300 24 -527 14z m435 -332 c68 -19 108 -71 150 -201 92 -279 233 -458 440
-558 106 -52 187 -70 315 -70 128 0 209 18 315 70 207 100 345 275 441 559 29
87 47 124 74 152 54 57 88 63 355 55 l230 -7 29 -27 c173 -164 424 -690 585
-1229 94 -315 155 -598 186 -873 24 -202 17 -501 -14 -615 -29 -109 -63 -175
-115 -223 -131 -121 -285 -65 -536 194 -153 158 -278 325 -473 631 -76 119 35
108 -1077 108 -953 0 -965 0 -1000 -20 -19 -12 -48 -42 -65 -69 -317 -506
-611 -830 -811 -893 -45 -14 -61 -15 -108 -4 -105 23 -173 110 -217 276 -31
114 -38 413 -14 615 80 703 402 1629 701 2020 81 106 86 109 199 113 238 7
373 6 410 -4z m1225 -339 c-43 -54 -95 -96 -160 -128 -49 -24 -66 -27 -160
-27 -94 0 -111 3 -160 27 -65 32 -117 74 -160 128 l-32 40 352 0 352 0 -32
-40z"/>
<path d="M1332 3340 c-41 -9 -90 -53 -108 -97 -9 -21 -14 -72 -14 -148 l0
-115 -121 0 c-105 0 -126 -3 -159 -21 -104 -58 -105 -217 -3 -280 32 -20 53
-24 160 -27 l123 -4 0 -113 c0 -97 3 -117 23 -155 26 -50 90 -90 141 -90 47 1
110 33 137 71 22 31 24 46 27 160 l4 127 121 3 c134 4 169 17 211 72 31 41 30
149 -1 193 -38 53 -76 64 -212 64 l-121 0 0 121 c0 107 -3 126 -22 161 -36 64
-111 96 -186 78z"/>
<path d="M3687 3336 c-49 -18 -64 -32 -89 -79 -27 -54 -23 -163 8 -204 73 -99
205 -99 278 0 31 42 35 143 6 201 -36 76 -124 111 -203 82z"/>
<path d="M3302 2963 c-55 -27 -77 -68 -77 -145 0 -52 5 -73 21 -95 88 -117
296 -83 333 55 20 72 -15 154 -79 187 -39 20 -155 19 -198 -2z"/>
<path d="M3984 2961 c-98 -60 -112 -176 -31 -257 46 -45 102 -61 174 -48 154
27 196 228 63 303 -51 28 -161 29 -206 2z"/>
<path d="M3675 2646 c-42 -18 -83 -69 -91 -112 -3 -19 -4 -59 -2 -89 14 -169
235 -211 309 -59 30 64 23 158 -16 210 -46 60 -130 81 -200 50z"/>
</g>
</svg>
