<?xml version="1.0" standalone="no"?>
<!DOCTYPE svg PUBLIC "-//W3C//DTD SVG 20010904//EN"
 "http://www.w3.org/TR/2001/REC-SVG-20010904/DTD/svg10.dtd">
<svg version="1.0" xmlns="http://www.w3.org/2000/svg"
 width="512.000000pt" height="512.000000pt" viewBox="0 0 512.000000 512.000000"
 preserveAspectRatio="xMidYMid meet">
<metadata>
Created by potrace 1.16, written by Peter Selinger 2001-2019
</metadata>
<g transform="translate(0.000000,512.000000) scale(0.100000,-0.100000)"
fill="#fff" stroke="none">
<path d="M1420 5097 c-130 -44 -240 -156 -280 -284 -20 -64 -20 -89 -20 -2253
0 -2164 0 -2189 20 -2253 40 -130 159 -248 290 -288 63 -19 93 -19 1150 -17
l1085 3 65 31 c84 40 168 118 208 192 66 124 62 -44 62 2332 0 2376 4 2208
-62 2332 -40 74 -124 152 -208 192 l-65 31 -1090 2 -1090 3 -65 -23z m2222
-205 c90 -44 148 -141 148 -244 l0 -48 -676 0 -676 0 -29 -29 c-41 -41 -41
-101 0 -142 l29 -29 676 0 676 0 0 -1790 0 -1790 -1235 0 -1235 0 0 1790 0
1790 155 0 c151 0 157 1 180 24 45 45 45 107 0 152 -23 23 -28 24 -181 24
l-156 0 7 63 c16 139 86 222 206 246 24 5 499 8 1054 8 l1010 -2 47 -23z m148
-4370 c0 -116 -16 -172 -66 -230 -19 -22 -55 -51 -82 -64 l-47 -23 -1030 0
c-1114 0 -1064 -2 -1143 55 -65 47 -92 115 -99 249 l-6 111 1237 0 1236 0 0
-98z"/>
<path d="M1933 4576 c-24 -21 -28 -32 -28 -76 0 -67 33 -100 100 -100 67 0
100 33 100 100 0 67 -33 100 -100 100 -32 0 -52 -7 -72 -24z"/>
<path d="M1569 3741 l-29 -29 0 -396 0 -395 24 -28 24 -28 402 -3 401 -3 29
30 30 29 0 397 0 397 -29 29 -29 29 -397 0 -397 0 -29 -29z m671 -426 l0 -245
-245 0 -245 0 0 245 0 245 245 0 245 0 0 -245z"/>
<path d="M2707 3759 c-45 -26 -47 -46 -47 -444 0 -408 1 -419 55 -443 19 -9
134 -12 410 -12 l385 0 32 29 33 29 3 369 c2 202 1 382 -3 399 -3 18 -17 44
-32 58 l-26 26 -396 0 c-250 0 -402 -4 -414 -11z m663 -444 l0 -245 -250 0
-250 0 0 245 0 245 250 0 250 0 0 -245z"/>
<path d="M1569 2631 l-29 -29 0 -397 0 -397 29 -29 29 -29 397 0 397 0 29 29
29 29 0 397 0 397 -29 29 -29 29 -397 0 -397 0 -29 -29z m671 -426 l0 -245
-245 0 -245 0 0 245 0 245 245 0 245 0 0 -245z"/>
<path d="M2711 2646 c-49 -27 -50 -35 -51 -439 0 -403 2 -421 49 -447 13 -6
163 -10 414 -10 l394 0 26 26 c16 16 28 42 32 67 3 23 5 203 3 400 l-3 359
-33 29 -32 29 -388 0 c-302 -1 -392 -4 -411 -14z m659 -441 l0 -245 -250 0
-250 0 0 245 0 245 250 0 250 0 0 -245z"/>
<path d="M2155 1486 c-45 -45 -45 -107 0 -152 l24 -24 376 0 377 0 29 29 c23
23 29 38 29 71 0 33 -6 48 -29 71 l-29 29 -377 0 -376 0 -24 -24z"/>
<path d="M2359 481 c-23 -23 -29 -38 -29 -71 0 -33 6 -48 29 -71 l29 -29 170
0 c168 0 170 0 195 25 13 14 27 37 29 50 8 39 -2 72 -29 100 -25 25 -27 25
-195 25 l-170 0 -29 -29z"/>
</g>
</svg>
