<?xml version="1.0" standalone="no"?>
<!DOCTYPE svg PUBLIC "-//W3C//DTD SVG 20010904//EN"
 "http://www.w3.org/TR/2001/REC-SVG-20010904/DTD/svg10.dtd">
<svg version="1.0" xmlns="http://www.w3.org/2000/svg"
 width="512.000000pt" height="512.000000pt" viewBox="0 0 512.000000 512.000000"
 preserveAspectRatio="xMidYMid meet">
<metadata>
Created by potrace 1.16, written by Peter Selinger 2001-2019
</metadata>
<g transform="translate(0.000000,512.000000) scale(0.100000,-0.100000)"
fill="#fff" stroke="none">
<path d="M1053 5105 c-108 -29 -216 -102 -280 -188 -34 -45 -654 -1039 -711
-1139 -12 -21 -30 -67 -42 -104 -18 -60 -20 -92 -20 -368 0 -333 3 -357 63
-471 18 -32 56 -83 85 -113 l52 -54 -58 -63 c-64 -70 -106 -144 -127 -226 -22
-82 -21 -634 1 -710 24 -83 73 -168 132 -227 l52 -54 -58 -63 c-32 -35 -70
-88 -86 -118 -52 -103 -56 -137 -56 -465 0 -297 1 -305 25 -378 14 -41 37 -93
52 -117 40 -64 137 -154 201 -186 131 -66 -51 -61 2282 -61 2333 0 2151 -5
2282 61 64 32 161 122 201 186 15 24 38 76 52 117 24 73 25 81 25 378 0 328
-4 362 -56 465 -16 30 -54 83 -86 118 l-58 63 52 54 c59 59 108 144 132 227
22 76 23 628 1 710 -21 82 -63 156 -127 226 l-58 63 52 54 c59 59 108 144 132
227 24 80 23 632 0 712 -26 87 -48 125 -407 704 -368 593 -395 629 -513 692
-125 67 -29 63 -1629 62 -1216 0 -1458 -3 -1502 -14z m2963 -220 c105 -32 127
-58 374 -455 l227 -365 -1028 -3 c-566 -1 -1492 -1 -2057 0 l-1029 3 227 365
c245 394 269 423 370 455 69 21 2844 22 2916 0z m601 -1054 c122 -18 220 -95
262 -204 19 -54 21 -76 21 -322 0 -246 -1 -268 -22 -322 -29 -77 -104 -152
-181 -181 l-58 -22 -2079 0 -2079 0 -58 22 c-77 29 -152 104 -181 181 -21 54
-22 76 -22 322 0 246 2 268 21 322 40 105 141 187 253 203 74 11 4048 11 4123
1z m0 -1280 c122 -18 220 -95 262 -204 19 -54 21 -76 21 -322 0 -246 -1 -268
-22 -322 -29 -77 -104 -152 -181 -181 l-58 -22 -2079 0 -2079 0 -58 22 c-77
29 -152 104 -181 181 -21 54 -22 76 -22 322 0 246 2 268 21 322 40 105 141
187 253 203 74 11 4048 11 4123 1z m0 -1280 c122 -18 220 -95 262 -204 19 -54
21 -76 21 -322 0 -246 -1 -268 -22 -322 -29 -77 -104 -152 -181 -181 l-58 -22
-2079 0 -2079 0 -58 22 c-77 29 -152 104 -181 181 -21 54 -22 76 -22 322 0
246 2 268 21 322 40 105 141 187 253 203 74 11 4048 11 4123 1z"/>
<path d="M626 3606 c-111 -47 -176 -127 -197 -244 -32 -173 82 -338 256 -372
148 -29 289 43 354 180 37 77 37 202 2 275 -32 63 -93 124 -156 155 -74 36
-180 39 -259 6z m160 -211 c40 -16 68 -70 58 -110 -28 -110 -195 -92 -194 22
1 44 15 66 56 88 36 18 37 18 80 0z"/>
<path d="M2615 3618 c-37 -20 -55 -51 -55 -98 0 -48 18 -79 57 -99 15 -8 274
-11 903 -11 629 0 888 3 903 11 39 20 57 51 57 99 0 48 -18 79 -57 99 -31 16
-1779 15 -1808 -1z"/>
<path d="M2589 3171 c-41 -42 -41 -107 0 -153 l29 -33 902 0 902 0 29 33 c41
46 41 111 0 153 l-29 29 -902 0 -902 0 -29 -29z"/>
<path d="M626 2326 c-111 -47 -176 -127 -197 -244 -32 -173 82 -338 256 -372
148 -29 289 43 354 180 37 77 37 202 2 275 -32 63 -93 124 -156 155 -74 36
-180 39 -259 6z m160 -211 c40 -16 68 -70 58 -110 -28 -110 -195 -92 -194 22
1 44 15 66 56 88 36 18 37 18 80 0z"/>
<path d="M2615 2338 c-37 -20 -55 -51 -55 -98 0 -48 18 -79 57 -99 31 -16
1775 -16 1806 0 39 20 57 51 57 99 0 48 -18 79 -57 99 -31 16 -1779 15 -1808
-1z"/>
<path d="M2589 1891 c-41 -42 -41 -107 0 -153 l29 -33 902 0 902 0 29 33 c41
46 41 111 0 153 l-29 29 -902 0 -902 0 -29 -29z"/>
<path d="M626 1046 c-111 -47 -176 -127 -197 -244 -32 -173 82 -338 256 -372
148 -29 289 43 354 180 37 77 37 202 2 275 -32 63 -93 124 -156 155 -74 36
-180 39 -259 6z m160 -211 c40 -16 68 -70 58 -110 -28 -110 -195 -92 -194 22
1 44 15 66 56 88 36 18 37 18 80 0z"/>
<path d="M2615 1058 c-37 -20 -55 -51 -55 -98 0 -48 18 -79 57 -99 31 -16
1775 -16 1806 0 39 20 57 51 57 99 0 48 -18 79 -57 99 -31 16 -1779 15 -1808
-1z"/>
<path d="M2589 611 c-41 -42 -41 -107 0 -153 l29 -33 902 0 902 0 29 33 c41
46 41 111 0 153 l-29 29 -902 0 -902 0 -29 -29z"/>
</g>
</svg>
