<svg xmlns="http://www.w3.org/2000/svg" version="1.1" xmlns:xlink="http://www.w3.org/1999/xlink" xmlns:svgjs="http://svgjs.com/svgjs" width="512" height="512" x="0" y="0" viewBox="0 0 512 512" style="enable-background:new 0 0 512 512" xml:space="preserve" class=""><g transform="matrix(1.46,0,0,1.46,-117.75999999999999,-117.75999999999999)"><linearGradient xmlns="http://www.w3.org/2000/svg" id="SVGID_1_" gradientUnits="userSpaceOnUse" x1="256" x2="256" y1="512" y2="0"><stop stop-opacity="1" stop-color="#111111" offset="0"></stop><stop stop-opacity="1" stop-color="#111111" offset="1"></stop></linearGradient><linearGradient xmlns="http://www.w3.org/2000/svg" id="SVGID_2_" gradientUnits="userSpaceOnUse" x1="256" x2="256" y1="291.5" y2="127.688"><stop stop-opacity="1" stop-color="#f677b9" offset="0"></stop><stop stop-opacity="1" stop-color="#4d3e96" offset="1"></stop></linearGradient><g xmlns="http://www.w3.org/2000/svg"><g><g><path d="m260.814 201.329 134.668-87.329h-278.966l134.661 87.329c2.88 1.854 6.775 1.854 9.637 0zm-4.814 36.921c-44.082 0-79.941 35.829-79.941 79.875s35.859 79.875 79.941 79.875 79.941-35.829 79.941-79.875-35.859-79.875-79.941-79.875zm41.81 68.4-44.412 44.375c-1.735 1.733-4.008 2.6-6.28 2.6-2.273 0-4.545-.867-6.28-2.6l-26.648-26.625c-3.47-3.467-3.47-9.083 0-12.55s9.091-3.467 12.56 0l20.367 20.35 38.132-38.1c3.47-3.467 9.091-3.467 12.56 0s3.47 9.083.001 12.55zm-192.81-178.96v137.185c0 14.682 11.953 26.625 26.647 26.625h30.435c11.638-40.914 49.29-71 93.918-71-5.17 0-10.175-1.482-14.495-4.281zm165.486 88.529c-4.311 2.799-9.316 4.281-14.486 4.281 44.629 0 82.28 30.086 93.918 71h30.435c14.694 0 26.647-11.943 26.647-26.625v-137.187z" fill="url(#SVGID_2_)" data-original="url(#SVGID_2_)"></path></g></g></g></g></svg>